<svg width="1920" height="1080" viewBox="0 0 1920 1080" fill="none" xmlns="http://www.w3.org/2000/svg">
<g clip-path="url(#clip0_502_3467)">
<rect width="1920" height="1080" fill="#E1EBCB"/>
<path d="M1458.94 720C1458.94 889.551 904.226 549 586.938 549C269.651 549 12.4385 411.551 12.4385 242C12.4385 72.4486 269.651 -65 586.938 -65C904.226 -65 1458.94 550.449 1458.94 720Z" fill="#EEDA72" fill-opacity="0.44"/>
<path d="M653.439 1096.5C653.439 1274.61 488.231 1419 284.438 1419C80.6453 1419 -84.5612 1274.61 -84.5612 1096.5C-84.5612 918.388 -624.855 418 -421.061 418C-217.268 418 653.439 918.388 653.439 1096.5Z" fill="#A9D1DA"/>
<ellipse cx="1598.94" cy="956" rx="687.5" ry="714" fill="#EED184"/>
<path d="M48.5 423L483.5 607.5L30 799L48.5 423Z" fill="#DFCDDF"/>
<path d="M1440 64.5L1675 398.5L916 64.5H1440Z" fill="#A3CCC2"/>
</g>
<defs>
<clipPath id="clip0_502_3467">
<rect width="1920" height="1080" fill="white"/>
</clipPath>
</defs>
</svg>
