<svg width="195" height="63" viewBox="0 0 195 63" fill="none" xmlns="http://www.w3.org/2000/svg">
<path d="M26.7749 0.352051C11.6196 2.63159 0 15.709 0 31.5C0 48.897 14.103 63 31.5 63C48.897 63 63 48.897 63 31.5C63 14.6313 49.7402 0.859375 33.0752 0.0388184V0H29.9253V29.9248C29.9253 30.2795 30.0425 30.6069 30.2402 30.8701L39.5327 46.9653L42.2607 45.3901L33.0752 29.4805V3.19312C48 4.0105 59.8501 16.3713 59.8501 31.5C59.8501 47.1575 47.1572 59.8501 31.5 59.8501C15.8428 59.8501 3.1499 47.1575 3.1499 31.5C3.1499 17.4526 13.3667 5.7915 26.7749 3.54199V0.352051Z" fill="black"/>
<path d="M78.5229 32V2.90918H82.0459V28.875H95.5684V32H78.5229Z" fill="black"/>
<path d="M101.023 32V2.90918H118.58V6.03418H104.546V15.8638H117.671V18.9888H104.546V28.875H118.807V32H101.023Z" fill="black"/>
<path fill-rule="evenodd" clip-rule="evenodd" d="M122.429 32H126.123L129.047 23.7615H140.812L143.736 32H147.429L136.748 2.90918H133.111L122.429 32ZM139.702 20.6365L135.043 7.51147H134.815L130.156 20.6365H139.702Z" fill="black"/>
<path d="M150.419 2.90918L159.056 27.3977H159.396L168.033 2.90918H171.726L161.044 32H157.408L146.726 2.90918H150.419Z" fill="black"/>
<path d="M176.257 2.90918V32H194.042V28.875H179.78V18.9888H192.905V15.8638H179.78V6.03418H193.814V2.90918H176.257Z" fill="black"/>
<path fill-rule="evenodd" clip-rule="evenodd" d="M108.034 51.7273C108.034 53.2615 107.757 54.5872 107.203 55.7046C106.649 56.822 105.89 57.6838 104.923 58.2898C103.958 58.896 102.854 59.199 101.614 59.199C100.374 59.199 99.27 58.896 98.3042 58.2898C98.0479 58.1287 97.8057 57.9497 97.5781 57.7524C97.4692 57.6584 97.3643 57.5603 97.2622 57.458L97.1777 57.3713L97.0723 57.2585C96.6655 56.8118 96.3164 56.2937 96.0244 55.7046C95.4702 54.5872 95.1934 53.2615 95.1934 51.7273C95.1934 50.1934 95.4702 48.8674 96.0244 47.75C96.5781 46.6326 97.3384 45.771 98.3042 45.1648C99.27 44.5588 100.374 44.2559 101.614 44.2559C102.854 44.2559 103.958 44.5588 104.923 45.1648C105.89 45.771 106.649 46.6326 107.203 47.75C107.757 48.8674 108.034 50.1934 108.034 51.7273ZM106.33 51.7273C106.33 50.4678 106.119 49.405 105.698 48.5383C105.281 47.6719 104.715 47.0161 104 46.571C103.29 46.126 102.495 45.9036 101.614 45.9036C100.733 45.9036 99.9355 46.126 99.2202 46.571C98.5103 47.0161 97.9443 47.6719 97.5229 48.5383C97.1064 49.405 96.8979 50.4678 96.8979 51.7273C96.8979 52.9868 97.1064 54.0498 97.5229 54.9163C97.9443 55.7827 98.5103 56.4385 99.2202 56.8835C99.5503 57.0889 99.8979 57.2471 100.263 57.3577C100.689 57.4868 101.14 57.5513 101.614 57.5513C102.495 57.5513 103.29 57.3286 104 56.8835C104.715 56.4385 105.281 55.7827 105.698 54.9163C106.119 54.0498 106.33 52.9868 106.33 51.7273Z" fill="black"/>
<path d="M120.826 59H122.53V44.4546H120.797V55.9036H120.655L112.701 44.4546H110.996V59H112.757V47.5796H112.899L120.826 59Z" fill="black"/>
<path d="M130.884 46.0171V44.4546H141.793V46.0171H137.219V59H135.458V46.0171H130.884Z" fill="black"/>
<path d="M144.512 59H146.273V44.4546H144.512V59Z" fill="black"/>
<path d="M149.805 44.4546H151.907L156.85 56.5286H157.021L161.964 44.4546H164.066V59H162.418V47.949H162.276L157.73 59H156.14L151.594 47.949H151.452V59H149.805V44.4546Z" fill="black"/>
<path d="M176.376 44.4546H167.598V59H176.49V57.4375H169.359V52.4944H175.921V50.9319H169.359V46.0171H176.376V44.4546Z" fill="black"/>
</svg>
