<svg width="253" height="349" viewBox="0 0 253 349" fill="none" xmlns="http://www.w3.org/2000/svg">
<path fill-rule="evenodd" clip-rule="evenodd" d="M106.477 1.40385C53.9625 9.84867 13.8484 55.3759 13.8484 110.272C13.8484 171.174 63.219 220.545 124.121 220.545C185.022 220.545 234.393 171.174 234.393 110.272C234.393 51.3435 188.169 3.21075 130.002 0.154141V0H118.239V98.5099C118.239 99.6696 118.407 100.79 118.72 101.849C120.159 106.719 124.665 110.272 130.002 110.272H191.754V98.5097H130.002V11.9352C181.669 14.9772 222.631 57.8413 222.631 110.272C222.631 164.678 178.526 208.782 124.121 208.782C69.7153 208.782 25.6109 164.678 25.6109 110.272C25.6109 61.8896 60.4911 21.6534 106.477 13.3381V1.40385ZM9.06644 242.141V296.208H38.8088V304.058H0V242.141H9.06644ZM85.2397 276.195H60.0306V296.65H88.4462V304.058H50.9642V242.141H88.4462V249.549H60.0306V269.008H85.2397V276.195ZM138.34 289.131L143.537 304.058H153.377L130.269 242.141H119.433L96.2143 304.058H105.391L110.699 289.131H138.34ZM135.908 282.055H113.131L124.74 249.438L135.908 282.055ZM204.467 242.141L184.012 304.058H171.628L151.174 242.141H161.125L178.041 297.203L195.4 242.141H204.467ZM224.584 276.195H249.794V269.008H224.584V249.549H253V242.141H215.518V304.058H253V296.65H224.584V276.195ZM62.1108 334.556C62.1108 331.976 62.3811 329.814 62.9216 328.069C63.4622 326.3 64.1747 324.875 65.0592 323.794C65.9438 322.713 66.9511 321.939 68.0814 321.472C69.2362 320.981 70.4278 320.735 71.6563 320.735C72.8849 320.735 74.0642 320.981 75.1945 321.472C76.3493 321.939 77.3689 322.713 78.2535 323.794C79.138 324.875 79.8505 326.3 80.3911 328.069C80.9316 329.814 81.2019 331.976 81.2019 334.556C81.2019 337.136 80.9316 339.31 80.3911 341.079C79.8505 342.824 79.138 344.236 78.2535 345.317C77.3689 346.399 76.3493 347.185 75.1945 347.676C74.0397 348.143 72.8603 348.376 71.6563 348.376C70.4278 348.376 69.2362 348.143 68.0814 347.676C66.9511 347.185 65.9438 346.399 65.0592 345.317C64.1747 344.236 63.4622 342.824 62.9216 341.079C62.3811 339.31 62.1108 337.136 62.1108 334.556ZM65.3172 334.556C65.3172 338.29 65.8455 341.128 66.902 343.069C67.9585 345.01 69.5433 345.981 71.6563 345.981C73.7694 345.981 75.3542 345.01 76.4107 343.069C77.4672 341.128 77.9955 338.29 77.9955 334.556C77.9955 330.821 77.4672 327.983 76.4107 326.042C75.3542 324.101 73.7694 323.13 71.6563 323.13C69.5433 323.13 67.9585 324.101 66.902 326.042C65.8455 327.983 65.3172 330.821 65.3172 334.556ZM98.5683 347.824H102.622V321.288H99.8583V343.364L91.2709 321.288H87.1063V347.824H89.9441V325.416L98.5683 347.824ZM133.743 324.015H127.256V347.824H124.124V324.015H117.711V321.288H133.743V324.015ZM137.783 347.824H140.915V321.288H137.783V347.824ZM156.787 344.322L150.522 326.742V347.824H147.536V321.288H151.627L158.261 340.305L164.379 321.288H168.433V347.824H165.337V326.742L159.551 344.322H156.787ZM178.203 335.551H186.864V333.118H178.203V323.794H187.969V321.288H175.07V347.824H187.969V345.317H178.203V335.551Z" fill="black"/>
</svg>
