<svg width="253" height="348" viewBox="0 0 253 348" fill="none" xmlns="http://www.w3.org/2000/svg">
<path d="M110.5 1.22925C57.5762 9.19019 17 54.8567 17 110C17 170.751 66.2485 220 127 220C187.751 220 237 170.751 237 110C237 51.093 190.696 3.00073 132.5 0.13501V0H121.5V104.5C121.5 105.74 121.91 106.883 122.602 107.803L155.05 164.005L164.576 158.505L132.5 102.947V11.1501C184.618 14.0042 226 57.1694 226 110C226 164.676 181.676 209 127 209C72.3237 209 28 164.676 28 110C28 60.9456 63.6777 20.2241 110.5 12.3689V1.22925Z" fill="black"/>
<path d="M9.06641 241V295.067H38.8086V302.917H0V241H9.06641Z" fill="black"/>
<path d="M85.2397 275.054H60.0308V295.509H88.4463V302.917H50.9644V241H88.4463V248.408H60.0308V267.868H85.2397V275.054Z" fill="black"/>
<path fill-rule="evenodd" clip-rule="evenodd" d="M138.34 287.991L143.537 302.917H153.377L130.269 241H119.433L96.2144 302.917H105.391L110.699 287.991H138.34ZM135.908 280.915H113.131L124.74 248.297L135.908 280.915Z" fill="black"/>
<path d="M204.466 241L184.012 302.917H171.628L151.173 241H161.125L178.041 296.062L195.4 241H204.466Z" fill="black"/>
<path d="M224.584 275.054H249.793V267.868H224.584V248.408H253V241H215.518V302.917H253V295.509H224.584V275.054Z" fill="black"/>
<path fill-rule="evenodd" clip-rule="evenodd" d="M62.1108 333.415C62.1108 330.835 62.3809 328.673 62.9214 326.928C63.4619 325.159 64.1748 323.734 65.0591 322.653C65.9438 321.572 66.9512 320.798 68.0815 320.331C68.5913 320.114 69.1084 319.945 69.6323 319.824C70.2954 319.671 70.9702 319.594 71.6562 319.594C72.8848 319.594 74.0645 319.84 75.1943 320.331C76.3491 320.798 77.3691 321.572 78.2534 322.653C79.1382 323.734 79.8506 325.159 80.3911 326.928C80.9316 328.673 81.2021 330.835 81.2021 333.415C81.2021 335.995 80.9316 338.169 80.3911 339.938C79.8506 341.683 79.1382 343.096 78.2534 344.177C77.3691 345.258 76.3491 346.044 75.1943 346.536C74.0396 347.002 72.8604 347.236 71.6562 347.236C71.3174 347.236 70.9814 347.218 70.6479 347.182C70.5679 347.174 70.4883 347.164 70.4087 347.154C70.3105 347.141 70.2124 347.126 70.1147 347.11L69.9756 347.086C69.8491 347.063 69.7227 347.038 69.5967 347.01C69.085 346.895 68.5796 346.737 68.0815 346.536C66.9512 346.044 65.9438 345.258 65.0591 344.177C64.1748 343.096 63.4619 341.683 62.9214 339.938C62.3809 338.169 62.1108 335.995 62.1108 333.415ZM65.3174 333.415C65.3174 337.15 65.8457 339.988 66.9019 341.929C67.9585 343.87 69.5435 344.84 71.6562 344.84C73.7695 344.84 75.354 343.87 76.4106 341.929C77.4673 339.988 77.9956 337.15 77.9956 333.415C77.9956 329.68 77.4673 326.843 76.4106 324.901C75.354 322.96 73.7695 321.99 71.6562 321.99C69.5435 321.99 67.9585 322.96 66.9019 324.901C65.8457 326.843 65.3174 329.68 65.3174 333.415Z" fill="black"/>
<path d="M98.5684 346.683H102.623V320.147H99.8584V342.223L91.271 320.147H87.1064V346.683H89.9443V324.275L98.5684 346.683Z" fill="black"/>
<path d="M133.743 322.874H127.256V346.683H124.124V322.874H117.71V320.147H133.743V322.874Z" fill="black"/>
<path d="M137.783 346.683H140.915V320.147H137.783V346.683Z" fill="black"/>
<path d="M156.787 343.182L150.521 325.602V346.683H147.536V320.147H151.627L158.261 339.165L164.379 320.147H168.433V346.683H165.337V325.602L159.551 343.182H156.787Z" fill="black"/>
<path d="M178.203 334.41H186.864V331.978H178.203V322.653H187.969V320.147H175.07V346.683H187.969V344.177H178.203V334.41Z" fill="black"/>
</svg>
