<svg width="195" height="63" viewBox="0 0 195 63" fill="none" xmlns="http://www.w3.org/2000/svg">
<path d="M29.8198 0H33.1798V0.0441123C49.7958 0.917164 63 14.6666 63 31.5001C63 48.8971 48.897 63.0001 31.5 63.0001C14.103 63.0001 0 48.8971 0 31.5001C0 15.8187 11.4587 2.81361 26.4598 0.401162V3.81001C13.3236 6.18546 3.36002 17.6791 3.36002 31.4999C3.36002 47.0412 15.9587 59.6399 31.5 59.6399C47.0413 59.6399 59.64 47.0412 59.64 31.4999C59.64 16.5225 47.9391 4.2781 33.1798 3.40919V28.14H50.8198V31.5L33.1798 31.5C32.7738 31.5 32.3847 31.428 32.0245 31.2961C31.6101 31.1444 31.2339 30.9134 30.9144 30.6215C30.2417 30.0071 29.8198 29.1228 29.8198 28.14V3.40922C29.8198 3.40922 29.8198 3.40922 29.8198 3.40922L29.8198 0.0441373C29.8197 0.0441377 29.8198 0.044137 29.8198 0.0441373L29.8198 0Z" fill="black"/>
<path d="M78.5227 31V1.90909H82.0455V27.875H95.5682V31H78.5227Z" fill="black"/>
<path d="M101.023 31V1.90909H118.58V5.03409H104.545V14.8636H117.67V17.9886H104.545V27.875H118.807V31H101.023Z" fill="black"/>
<path d="M126.122 31H122.429L133.111 1.90909H136.747L147.429 31H143.736L135.043 6.51136H134.815L126.122 31ZM127.486 19.6364H142.372V22.7614H127.486V19.6364Z" fill="black"/>
<path d="M150.419 1.90909L159.055 26.3977H159.396L168.033 1.90909H171.726L161.044 31H157.408L146.726 1.90909H150.419Z" fill="black"/>
<path d="M176.257 31V1.90909H193.814V5.03409H179.78V14.8636H192.905V17.9886H179.78V27.875H194.041V31H176.257Z" fill="black"/>
<path d="M108.034 50.7273C108.034 52.2614 107.757 53.5871 107.203 54.7045C106.649 55.822 105.889 56.6837 104.923 57.2898C103.957 57.8958 102.854 58.1989 101.614 58.1989C100.373 58.1989 99.2699 57.8958 98.304 57.2898C97.3381 56.6837 96.5781 55.822 96.0241 54.7045C95.4702 53.5871 95.1932 52.2614 95.1932 50.7273C95.1932 49.1932 95.4702 47.8674 96.0241 46.75C96.5781 45.6326 97.3381 44.7708 98.304 44.1648C99.2699 43.5587 100.373 43.2557 101.614 43.2557C102.854 43.2557 103.957 43.5587 104.923 44.1648C105.889 44.7708 106.649 45.6326 107.203 46.75C107.757 47.8674 108.034 49.1932 108.034 50.7273ZM106.33 50.7273C106.33 49.4678 106.119 48.4048 105.697 47.5384C105.281 46.6719 104.715 46.0161 104 45.571C103.29 45.1259 102.494 44.9034 101.614 44.9034C100.733 44.9034 99.9351 45.1259 99.2202 45.571C98.5099 46.0161 97.9441 46.6719 97.5227 47.5384C97.1061 48.4048 96.8977 49.4678 96.8977 50.7273C96.8977 51.9867 97.1061 53.0497 97.5227 53.9162C97.9441 54.7827 98.5099 55.4384 99.2202 55.8835C99.9351 56.3286 100.733 56.5511 101.614 56.5511C102.494 56.5511 103.29 56.3286 104 55.8835C104.715 55.4384 105.281 54.7827 105.697 53.9162C106.119 53.0497 106.33 51.9867 106.33 50.7273Z" fill="black"/>
<path d="M122.53 43.4545V58H120.825L112.899 46.5795H112.757V58H110.996V43.4545H112.7L120.655 54.9034H120.797V43.4545H122.53Z" fill="black"/>
<path d="M130.884 45.017V43.4545H141.793V45.017H137.219V58H135.458V45.017H130.884Z" fill="black"/>
<path d="M146.273 43.4545V58H144.511V43.4545H146.273Z" fill="black"/>
<path d="M149.804 43.4545H151.907L156.85 55.5284H157.02L161.963 43.4545H164.066V58H162.418V46.9489H162.276L157.73 58H156.14L151.594 46.9489H151.452V58H149.804V43.4545Z" fill="black"/>
<path d="M167.597 58V43.4545H176.376V45.017H169.359V49.9318H175.921V51.4943H169.359V56.4375H176.489V58H167.597Z" fill="black"/>
</svg>
