<svg width="18" height="20" viewBox="0 0 18 20" fill="none" xmlns="http://www.w3.org/2000/svg">
<path d="M12 2H2V18H16V6H12V2ZM0 0.9918C0 0.44405 0.44749 0 0.9985 0H13L17.9997 5L18 18.9925C18 19.5489 17.5551 20 17.0066 20H0.9934C0.44476 20 0 19.5447 0 19.0082V0.9918ZM10.529 12.4464C8.9951 13.3524 6.98633 13.1464 5.66839 11.8284C4.1063 10.2663 4.1063 7.73367 5.66839 6.17157C7.2305 4.60948 9.7631 4.60948 11.3252 6.17157C12.6432 7.48951 12.8492 9.4983 11.9432 11.0322L14.1537 13.2426L12.7395 14.6569L10.529 12.4464ZM9.911 10.4142C10.6921 9.6332 10.6921 8.3668 9.911 7.58579C9.13 6.80474 7.8637 6.80474 7.0826 7.58579C6.30156 8.3668 6.30156 9.6332 7.0826 10.4142C7.8637 11.1953 9.13 11.1953 9.911 10.4142Z" fill="black"/>
</svg>
